<?xml version="1.0" standalone="no"?>
<!DOCTYPE svg PUBLIC "-//W3C//DTD SVG 20010904//EN"
 "http://www.w3.org/TR/2001/REC-SVG-20010904/DTD/svg10.dtd">
<svg version="1.0" xmlns="http://www.w3.org/2000/svg"
 width="320.000000pt" height="320.000000pt" viewBox="0 0 320.000000 320.000000"
 preserveAspectRatio="xMidYMid meet">

<g transform="translate(0.000000,320.000000) scale(0.100000,-0.100000)"
fill="#000000" stroke="none">
<path d="M1440 2535 l-155 -155 -217 0 -218 0 0 -218 0 -217 -160 -160 c-88
-88 -160 -164 -160 -169 0 -5 72 -82 160 -171 l160 -161 0 -212 0 -212 217 0
218 0 160 -160 161 -161 157 161 157 160 215 0 215 0 0 215 0 215 162 165 162
166 -162 162 -162 162 0 218 0 217 -218 0 -217 0 -155 155 c-85 85 -157 155
-160 155 -3 0 -75 -70 -160 -155z m300 -130 l135 -135 182 0 183 0 0 -182 0
-183 142 -142 143 -143 -143 -143 -142 -142 0 -183 0 -182 -181 0 -181 0 -139
-142 -139 -143 -140 142 -140 143 -180 0 -180 0 0 177 0 176 -140 143 c-77 79
-140 147 -140 151 0 5 63 71 140 148 l140 140 0 182 0 183 183 0 182 0 135
135 c74 74 137 135 140 135 3 0 66 -61 140 -135z"/>
</g>
</svg>
